<?xml version="1.0" standalone="no"?>
<!DOCTYPE svg PUBLIC "-//W3C//DTD SVG 20010904//EN"
 "http://www.w3.org/TR/2001/REC-SVG-20010904/DTD/svg10.dtd">
<svg version="1.0" xmlns="http://www.w3.org/2000/svg"
 width="3333.000000pt" height="1044.000000pt" viewBox="0 0 3333.000000 1044.000000"
 preserveAspectRatio="xMidYMid meet">

<g transform="translate(0.000000,1044.000000) scale(0.100000,-0.100000)"
fill="#000000" stroke="none">
<path d="M4830 10328 c-567 -1208 -4824 -10298 -4827 -10310 -5 -17 36 -18
773 -18 l779 0 2176 4608 2176 4607 1048 0 1048 0 1733 -4060 c954 -2233 1736
-4068 1740 -4077 5 -17 -155 -18 -3261 -18 -2055 0 -3265 -4 -3263 -9 2 -6
215 -244 473 -530 l470 -521 3873 0 c2129 0 3872 2 3872 3 0 2 -1021 2350
-2269 5218 l-2268 5214 -2110 3 -2110 2 -53 -112z"/>
<path d="M12580 6958 l0 -3483 767 -1737 c423 -956 771 -1738 776 -1738 4 0 7
2144 7 4765 l0 4765 3068 0 c1936 0 3131 -4 3241 -10 505 -30 851 -130 1166
-338 147 -96 328 -280 433 -440 233 -354 362 -775 424 -1382 19 -185 16 -586
-5 -740 -72 -517 -255 -911 -571 -1225 -262 -260 -607 -442 -1001 -527 -98
-21 -119 -22 -1271 -27 l-1171 -6 1881 -2417 1880 -2418 893 0 c491 0 893 1
893 3 0 2 -630 874 -1399 1938 -769 1064 -1397 1935 -1396 1937 2 2 59 14 127
28 582 114 1145 410 1553 819 504 504 785 1152 867 2000 19 195 15 703 -6 900
-33 303 -80 533 -158 775 -205 632 -572 1108 -1123 1457 -401 253 -950 439
-1547 522 -422 59 -86 55 -4390 58 l-3938 3 0 -3482z"/>
<path d="M22040 10381 c195 -79 275 -117 424 -200 306 -171 598 -403 786 -625
l65 -76 4735 0 4735 0 235 412 c129 226 252 442 273 480 l39 68 -5719 0 -5718
-1 145 -58z"/>
<path d="M14280 4682 l0 -4669 167 -6 c91 -4 476 -7 855 -7 l688 0 0 4055 0
4055 1898 -3 c1772 -2 1903 -4 1986 -20 334 -67 573 -220 704 -450 64 -111 91
-201 109 -351 41 -356 -28 -618 -212 -802 -70 -70 -97 -89 -186 -132 -113 -55
-203 -83 -350 -109 -85 -15 -266 -17 -1826 -20 l-1733 -4 0 -1012 1 -1012
1682 -2097 1681 -2098 1109 0 1109 0 -50 62 c-27 35 -873 1123 -1880 2418
-1007 1295 -1868 2399 -1912 2453 l-81 97 1329 0 c1446 -1 1417 -2 1639 56
709 184 1144 739 1237 1580 21 186 31 460 17 468 -7 5 -11 57 -11 149 -1 907
-336 1569 -951 1877 -129 65 -276 115 -428 146 l-126 26 -2747 -2 c-1892 0
-2748 2 -2748 10 0 7 -157 10 -485 10 l-485 0 0 -4668z"/>
<path d="M23450 9324 c0 -3 35 -65 79 -138 43 -72 94 -160 114 -196 90 -164
208 -474 262 -690 14 -58 31 -122 36 -142 l10 -38 929 0 930 0 0 -4060 0
-4060 810 0 809 0 3 4657 c2 2562 3 4659 3 4659 0 1 -897 4 -1992 8 -1096 4
-1993 4 -1993 0z"/>
<path d="M27620 4660 l0 -4660 830 0 830 0 0 4060 0 4060 1363 0 1362 0 286
503 c279 488 379 670 379 688 0 5 -1063 9 -2525 9 l-2525 0 0 -4660z"/>
<path d="M5938 8888 c-78 -157 -4178 -8835 -4185 -8859 -4 -15 18 -17 219 -23
122 -4 513 -6 866 -4 l644 3 1729 3675 c950 2021 1736 3692 1746 3713 l18 38
1033 -2446 c568 -1345 1035 -2452 1038 -2460 5 -13 -225 -15 -1969 -15 l-1974
0 -239 -502 c-131 -277 -266 -558 -301 -625 -35 -67 -63 -127 -63 -133 0 -11
6683 -10 6694 1 3 3 -12 48 -34 100 -50 119 -3150 7370 -3223 7539 l-54 125
-939 3 -940 2 -66 -132z"/>
</g>
</svg>
